<?xml version="1.0" standalone="no"?>
<!DOCTYPE svg PUBLIC "-//W3C//DTD SVG 20010904//EN"
 "http://www.w3.org/TR/2001/REC-SVG-20010904/DTD/svg10.dtd">
<svg version="1.0" xmlns="http://www.w3.org/2000/svg"
 width="500.000000pt" height="500.000000pt" viewBox="0 0 500.000000 500.000000"
 preserveAspectRatio="xMidYMid meet">

<g transform="translate(0.000000,500.000000) scale(0.100000,-0.100000)"
fill="#000000" stroke="none">
<path d="M1980 2640 l0 -251 88 3 87 3 0 245 0 245 -87 3 -88 3 0 -251z"/>
<path d="M2240 2810 l0 -80 305 0 306 0 -3 78 -3 77 -302 3 -303 2 0 -80z"/>
<path d="M4590 2560 c0 -5 5 -10 10 -10 6 0 10 5 10 10 0 6 -4 10 -10 10 -5 0
-10 -4 -10 -10z"/>
<path d="M2240 2470 l0 -80 260 0 260 0 0 80 0 80 -260 0 -260 0 0 -80z"/>
<path d="M2850 2300 l0 -250 85 0 85 0 0 250 0 250 -85 0 -85 0 0 -250z"/>
<path d="M1980 2130 l0 -80 390 0 390 0 0 80 0 80 -390 0 -390 0 0 -80z"/>
<path d="M1982 1918 c3 -31 6 -33 46 -36 56 -4 54 -22 -3 -22 -25 0 -45 -4
-45 -10 0 -5 25 -10 55 -10 l55 0 0 35 c0 35 0 35 -45 35 -25 0 -45 5 -45 10
0 6 20 10 45 10 25 0 45 5 45 10 0 6 -25 10 -56 10 l-55 0 3 -32z"/>
<path d="M2120 1895 l0 -55 55 0 55 0 0 55 0 55 -55 0 -55 0 0 -55z m88 3 c-3
-29 -7 -33 -35 -36 -32 -3 -33 -2 -33 32 0 35 1 36 36 36 34 0 35 -1 32 -32z"/>
<path d="M2250 1895 l0 -55 55 0 c30 0 55 5 55 10 0 6 -20 10 -45 10 l-45 0 0
45 c0 25 -4 45 -10 45 -5 0 -10 -25 -10 -55z"/>
<path d="M2380 1940 c0 -5 3 -10 8 -10 4 0 7 -19 7 -42 l0 -43 43 -3 42 -3 0
45 c0 25 5 46 10 46 6 0 10 5 10 10 0 6 -9 10 -20 10 -17 0 -20 -7 -20 -45 0
-38 -3 -45 -20 -45 -17 0 -20 7 -20 45 0 38 -3 45 -20 45 -11 0 -20 -4 -20
-10z"/>
<path d="M2520 1895 l0 -55 55 0 55 0 0 55 0 55 -55 0 -55 0 0 -55z m90 0 c0
-33 -2 -35 -35 -35 -33 0 -35 2 -35 35 0 33 2 35 35 35 33 0 35 -2 35 -35z"/>
<path d="M2652 1918 c3 -34 1 -33 71 -37 9 -1 17 -5 17 -11 0 -5 -20 -10 -45
-10 -25 0 -45 -4 -45 -10 0 -6 27 -10 61 -10 l60 0 -3 33 c-3 30 -6 32 -45 35
-57 4 -55 22 2 22 25 0 45 5 45 10 0 6 -27 10 -61 10 l-60 0 3 -32z"/>
<path d="M2870 1895 c0 -30 5 -55 10 -55 6 0 10 9 10 20 0 16 7 20 35 20 28 0
35 -4 35 -20 0 -11 5 -20 10 -20 6 0 10 25 10 55 l0 55 -55 0 -55 0 0 -55z
m90 25 c0 -5 -16 -10 -35 -10 -19 0 -35 5 -35 10 0 6 16 10 35 10 19 0 35 -4
35 -10z"/>
<path d="M3000 1895 c0 -42 3 -55 15 -55 12 0 15 13 15 55 0 42 -3 55 -15 55
-12 0 -15 -13 -15 -55z"/>
</g>
</svg>
